<svg width="151" height="129" viewBox="0 0 151 129" fill="none" xmlns="http://www.w3.org/2000/svg">
<g opacity="0.8">
<path d="M103.565 80.3051C103.491 82.1308 103.185 84.5006 102.822 86.2845C102.71 86.8422 102.709 86.5493 102.627 86.9323C102.463 87.6776 102.339 88.3875 102.141 89.1182C102.075 89.3603 102.065 89.0374 101.998 89.2912C101.625 90.6799 101.273 91.9963 100.799 93.3775C98.4596 100.165 94.811 106.363 89.9171 111.707C88.3075 113.476 86.1507 115.424 84.256 116.999C84.0352 117.184 84.2147 117.133 84.176 117.172C83.5632 117.783 83.6933 117.487 83.2392 117.817C81.4343 119.12 79.3761 120.489 77.537 121.582C76.7532 122.046 77.6198 121.722 76.779 122.101C76.7207 122.127 76.8847 121.946 76.6622 122.06C76.1585 122.321 75.2164 122.831 74.8196 123.02C74.0565 123.386 73.9312 123.446 73.2062 123.781C72.2118 124.236 71.0006 124.703 69.9088 125.131C69.6756 125.223 70.0149 125.182 69.6444 125.334C69.2749 125.488 68.2747 125.83 67.9284 125.921C67.5832 126.014 67.7082 125.906 67.6437 125.912C67.1125 125.96 65.9964 126.467 65.843 126.511C63.0992 127.355 60.6481 127.731 57.9836 128.054C55.9703 128.296 53.814 128.449 51.8727 128.442C51.8567 128.442 51.8406 128.442 51.8245 128.442C49.4993 128.429 47.5506 128.258 45.3136 127.985C45.0782 127.955 45.3419 128.084 45.0541 128.048C41.9941 127.652 38.9912 126.962 36.0911 125.957C35.8001 125.855 36.203 125.9 35.9144 125.793C34.1403 125.163 31.4699 123.881 30.3127 123.721C29.161 123.174 27.7902 122.449 26.8336 121.824C26.2182 121.421 26.8809 121.698 26.0827 121.279C25.9034 121.184 26.0909 121.386 25.8249 121.237C24.7039 120.607 23.5393 119.823 22.4753 119.124C22.2589 118.982 22.2758 119.081 22.2085 119.049C21.6428 118.777 20.9218 118.023 20.7537 117.876C19.462 116.764 18.4912 115.99 17.3213 114.921C17.0509 114.672 17.3064 115.036 17.0441 114.798C15.6856 113.559 14.3642 112.18 13.2165 110.794C12.9618 110.486 13.2638 110.711 13.1455 110.561C12.6272 109.897 12.3904 109.851 11.9081 109.201C11.8069 109.064 11.9211 109.095 11.9076 109.066C11.6984 108.613 11.3082 108.383 11.2289 108.285C10.2298 107.056 9.79246 106.123 8.94155 104.861C8.84009 104.709 8.98888 105.104 8.70854 104.673C6.84215 101.802 5.22965 98.5313 4.09907 95.34C3.9233 94.8432 4.11767 95.1721 4.11349 95.1381C4.04275 94.5881 3.76839 94.3203 3.70496 94.16C3.21082 92.8976 2.9849 91.648 2.54629 90.8153C1.37676 86.3573 0.710156 81.7873 0.777568 77.2064C0.794242 76.0721 0.854655 74.9622 0.963726 73.8378C0.970562 73.7658 1.04564 73.9005 1.05898 73.757C1.23538 72.0327 1.08491 72.3627 1.05087 71.1959C1.04282 70.9012 1.34954 70.0536 1.37593 69.9802C1.46735 69.708 1.5492 70.0155 1.57256 69.9234C1.76521 69.1661 1.33478 69.2233 1.51597 68.1755C1.52245 68.143 1.57278 68.2935 1.59577 68.2072C1.66748 67.9391 1.68802 67.6643 1.7652 67.4043C1.9445 66.811 2.18176 66.634 2.27741 65.6899C2.29101 65.5706 2.01571 65.6939 2.25231 64.7767C2.34063 64.4117 2.78124 62.7916 2.93846 62.352C3.08945 61.9096 3.06771 62.2386 3.08053 62.2076C3.5525 61.0353 3.45061 61.5039 3.7877 60.954C4.129 60.4085 3.74257 60.4589 3.79046 60.2034C3.83702 59.9477 4.23483 59.1093 4.34489 58.9094C4.45315 58.7086 4.39599 58.989 4.48369 58.8074C5.07173 57.6089 4.53806 58.1993 4.65147 57.7703C4.92713 56.7589 5.49821 56.1204 5.92748 55.2789C6.04456 55.0508 5.90035 55.2139 5.995 55.0053C6.37446 54.18 6.69311 53.7326 7.11931 52.7923C7.18816 52.6384 7.45902 51.8305 7.83328 51.4231C7.88634 51.3657 7.83182 51.5851 8.04054 51.2603C8.35078 50.7754 8.91203 49.8998 9.23477 49.3713C9.47281 48.9804 9.09429 49.3591 9.44085 48.8972C9.59571 48.6929 9.38319 49.1212 9.6701 48.7352C9.95367 48.349 10.6573 47.35 10.9351 46.9774C11.21 46.6037 10.9938 46.7591 11.0117 46.7258C11.121 46.5236 11.635 45.7914 11.6853 45.7304C14.1442 42.5914 16.8391 40.0651 19.8105 37.5905C20.0447 37.3969 19.8337 37.4576 19.8689 37.4274C20.6613 36.7501 20.1593 37.4375 20.7766 37.0504C20.588 36.9786 20.9433 36.7369 21.5196 36.2845C21.7976 36.0671 21.6035 36.1274 21.6252 36.1027C21.9872 35.7094 22.3632 35.6054 22.455 35.5732C22.7948 35.4537 23.0386 35.1434 23.2715 35.0654C23.5033 34.9878 23.1096 35.3708 23.6893 34.9788C23.8184 34.8181 23.2947 34.9726 23.7241 34.6549C25.3337 33.4258 28.6983 31.7129 30.1814 31.066C31.6505 30.3968 32.1347 30.1943 33.0136 29.8621C34.6125 29.2835 33.991 29.3972 34.966 28.9872C35.9513 28.5889 35.5587 29.0389 35.7228 29.0495C35.8841 29.0625 36.0178 28.9493 36.205 28.9253C36.3914 28.9018 36.0246 29.0655 36.4416 28.9451C36.8588 28.8212 37.9591 28.379 38.0923 28.2758C38.3694 28.0539 37.8089 28.0486 38.9416 27.8003C39.0068 27.7865 38.8174 27.9162 39.066 27.8597C41.0291 27.412 43.0934 27.0135 45.0917 26.802C45.3665 26.7732 45.133 26.8912 45.2929 26.8757C46.9607 26.7289 46.3531 26.6583 47.2505 26.407C47.066 26.6432 47.578 26.7149 48.8456 26.6383C49.6106 26.5967 49.4697 26.5114 49.9606 26.4249C50.1077 26.3986 50.6494 26.4479 50.7465 26.4022C51.0677 26.2532 50.5515 26.0907 51.8727 26.1474C51.8733 26.1474 51.8738 26.1475 51.8744 26.1475C51.8949 26.1486 51.8851 26.1591 51.8727 26.1726C51.8564 26.1902 51.8356 26.2128 51.8727 26.2254C51.8875 26.2304 51.9113 26.2338 51.9481 26.2347C53.2414 26.2762 53.3949 26.1266 54.7899 26.1781C55.8892 26.2178 57.8155 26.4931 59.0428 26.6892C58.9837 26.9234 60.1464 27.0397 60.6454 26.9608C61.4401 27.105 62.2932 27.2653 63.0518 27.4592C63.3121 27.5258 63.1244 27.5556 63.1558 27.5704C63.6342 27.8009 64.0101 27.7265 64.1807 27.7621C66.0285 28.1609 67.462 28.7296 69.1944 29.2229C69.2555 29.2408 69.4113 29.116 69.8213 29.4007C69.8472 29.4198 69.2634 29.2815 70.0547 29.5865C70.847 29.8906 72.2841 30.584 73.379 31.0144C73.6438 31.1162 74.355 31.304 74.8235 31.6616C74.8857 31.7093 74.7888 31.7144 74.8756 31.7885C75.156 32.0274 75.4088 31.9662 75.7132 32.2914C76.0163 32.617 76.7327 33.1237 77.795 33.6407C77.8287 33.6575 78.1376 33.684 78.4542 33.8811C78.9593 34.1945 79.6531 34.6734 80.1665 35.0188C80.4126 35.1841 80.3022 35.0087 80.3458 35.0362C82.0235 36.125 83.1196 37.0418 84.7337 38.4422C85.0295 38.698 85.9548 39.3545 86.4483 39.9403C86.9853 40.5849 86.0963 40.2845 87.5197 41.5447C88.0852 42.0561 89.1505 42.3994 89.8707 43.6195C91.7005 45.5931 93.0921 47.6627 94.6271 49.8745C94.6961 49.9738 95.0249 50.2201 95.1736 50.4648C95.3942 50.828 95.4553 51.0623 95.6058 51.3243C96.2335 52.4244 96.8391 53.4161 97.3784 54.5141C97.5818 54.9317 97.448 54.8172 97.6845 55.3167C97.918 55.816 98.1587 56.1112 98.4204 56.8158C98.6169 57.3498 98.6616 57.9412 98.9158 58.6436C99.099 58.6015 99.2901 59.0806 99.6492 59.9257C99.7179 60.0879 99.7151 59.8883 99.7507 59.964C99.8972 60.2719 99.9498 60.5863 100.088 60.8801C100.121 60.9516 100.183 60.9348 100.214 60.9923C100.479 61.4812 100.609 62.3874 100.627 62.5409C100.705 63.1339 100.86 63.3768 100.944 63.8251C101.026 64.2725 100.805 63.6305 100.92 64.1473C101.157 65.2145 101.48 66.5856 101.682 67.6745C101.763 68.1094 101.791 67.7972 101.804 67.8591C101.994 68.757 102.044 69.6915 102.281 70.1694C101.929 70.8582 102.405 70.7094 102.458 72.0318C102.461 72.1348 102.268 72.2862 102.198 71.8955C102.127 71.5042 102.122 70.8997 102.001 70.3633C101.974 70.2349 101.675 69.5321 101.646 69.4339C101.432 68.665 101.714 68.5038 101.724 68.4586C101.825 67.9545 101.445 67.1026 101.38 66.8721C101.092 65.8106 100.915 64.9051 100.631 64.0307C100.444 63.4608 100.232 63.4609 100.108 63.0111C99.6827 61.5233 99.7732 60.9071 99.0382 59.6155C98.8767 59.3397 98.7874 59.7082 98.539 58.5996C98.5243 58.5298 98.3584 57.6966 98.0714 57.2919C98.0356 57.2412 97.977 57.2687 97.9402 57.1975C97.6938 56.7211 97.5943 56.3747 97.3247 55.858C97.0555 55.3428 96.7125 54.7287 96.4259 54.1297C96.2537 53.7681 96.1163 53.2593 96.049 53.0757C95.8624 52.5568 95.4513 52.1203 95.37 51.7785C95.2861 51.433 95.7624 51.9267 95.3618 51.1231C95.2007 51.1813 95.0137 51.2054 94.8417 51.2478C93.8388 49.5808 92.7976 47.9696 91.5937 46.4295C91.4441 46.239 91.5251 46.4897 91.3627 46.2877C90.6763 45.4376 90.1131 44.6617 89.3397 43.8307C88.7403 43.1881 88.0116 42.5524 87.3489 41.9209C87.093 41.386 86.0662 40.4831 85.3383 39.8136C85.0837 39.5782 85.1348 39.5554 84.9603 39.3798C84.297 38.722 84.5154 39.138 84.3047 38.9923C83.3949 38.3778 83.5691 38.0186 82.5389 37.2297C82.4846 37.1863 81.6923 36.8462 81.5919 36.7905C80.9531 36.4267 81.537 36.6608 81.1749 36.38C80.5112 35.871 80.0581 35.4979 79.2032 35.0122C78.9533 34.8703 78.3074 34.6107 77.8834 34.239C77.8277 34.1901 77.8974 34.153 77.8491 34.1192C76.9681 33.5149 76.8328 33.69 76.2696 33.4543C75.7055 33.2189 74.9473 32.6546 74.7947 32.5303C74.3993 32.2043 75.1575 32.6639 75.1856 32.6683C75.5271 32.7036 74.9104 32.4014 74.4449 32.1569C74.4715 31.9349 73.8024 31.6208 73.9609 31.9056C73.9795 31.9368 74.355 32.1005 74.4449 32.1569C73.9396 32.1322 73.2119 31.8049 72.4779 31.2658C72.1325 31.0158 72.5397 31.0707 71.3542 30.6081C70.8156 30.4034 70.9667 30.6209 70.482 30.4682C69.3739 30.1196 68.0059 29.4908 66.8526 29.157C66.437 29.0366 66.8164 29.2359 66.5318 29.157C65.7769 28.9498 65.1249 28.7058 64.3517 28.5388C64.282 28.524 64.4301 28.6466 64.1933 28.5876C62.3945 28.1469 60.8154 27.7797 58.8953 27.5056C57.9691 27.3689 56.2974 27.2398 55.3305 27.1712C54.2429 27.0863 53.0163 26.9898 51.8727 26.9619C51.2423 26.9459 50.6483 26.9494 50.1375 26.9772C49.2023 27.0314 49.4141 27.1085 49.0143 27.1852C48.2449 27.332 46.8709 27.2611 46.6831 27.2535C46.678 27.2517 47.4763 27.1564 47.0451 27.1547C46.7878 27.0907 46.6924 27.2523 46.6831 27.2535C46.5583 27.2405 44.9521 27.4146 44.6405 27.4828C44.47 27.5163 44.5773 27.5796 44.4884 27.5957C42.3649 27.98 40.2694 28.4482 38.1587 29.0093C38.1213 29.0182 38.1531 28.9183 38.0654 28.9406C36.8413 29.2527 36.0984 29.6095 35.1405 30.0137C34.1831 30.4207 33.4092 30.7056 32.7827 30.8011C32.0634 31.1148 31.0032 31.5153 30.4001 31.759C29.7959 32.0019 29.7894 32.1985 29.7398 32.2259C28.1957 33.1173 27.249 33.5259 25.6617 34.4728C24.9045 34.921 23.4656 35.904 22.7081 36.4794C22.1077 36.9302 21.7216 37.1699 21.1892 37.6138C21.1174 37.6739 21.2385 37.6757 21.2177 37.6955C20.6665 38.242 20.8441 37.8689 20.6982 37.9416C20.1717 38.2091 19.8485 38.3839 19.1303 39.0722C18.9637 39.2312 18.639 39.8695 18.3436 40.1596C17.9583 40.5376 18.0432 40.3292 17.6453 40.7319C17.6115 40.7666 17.6585 40.802 17.4041 41.0403C16.2245 42.1473 14.9805 43.4044 13.8909 44.6872C13.742 44.8623 14.004 44.6989 13.791 44.953C12.7919 46.1455 11.7514 47.4958 10.851 48.7165C10.6292 49.0171 10.7087 48.7876 10.6466 48.8432C10.2648 49.1875 10.0181 49.8727 9.9583 49.972C8.52435 52.3484 7.36261 54.1449 6.25612 56.7561C6.19363 56.8984 5.88961 58.0569 5.55062 58.4874C5.5274 58.5164 5.18177 58.9438 5.11971 59.4174C5.11617 59.4468 5.30858 59.1709 5.09949 59.7008C4.89021 60.2324 4.63798 61.1084 4.31172 61.8269C4.20831 62.054 3.87576 62.5663 3.79342 63.3132C3.78565 63.3625 3.75936 64.5371 3.47035 64.8816C3.42368 64.9376 3.23015 64.8175 3.1301 65.7024C3.11222 65.8715 3.22696 65.584 3.15568 66.0233C3.04733 66.697 2.80877 67.5686 2.75588 68.4073C2.74612 68.554 2.78185 69.1877 2.6007 69.6633C2.57234 69.7374 2.52443 69.581 2.478 69.8388C2.25776 71.0662 2.16146 72.3784 2.0243 73.6388C1.97675 74.0873 1.8777 73.8495 1.8192 74.3189C1.7598 74.7899 1.69436 75.7306 1.73903 76.2265C1.78335 76.7206 1.97084 76.1849 1.97848 76.9223C1.97982 77.017 1.98127 77.1117 1.98284 77.2064C2.03486 80.3026 2.21477 83.3774 2.76782 86.427C2.85386 86.8914 2.84203 86.4957 2.97875 87.1764C3.44882 89.7091 4.82041 93.9237 5.57611 96.0267C6.161 97.7193 5.21344 95.6744 5.70397 96.9548C5.94501 97.5748 6.43646 98.1372 6.50972 98.2777C7.23041 99.6567 7.64756 100.656 8.36209 101.865C8.51049 102.113 8.44412 101.824 8.56985 102.036C9.00013 102.755 9.42715 103.528 9.86791 104.199C10.0661 104.5 10.0847 104.408 10.2623 104.687C10.6896 105.352 11.0674 105.943 11.4725 106.604C11.5097 106.664 11.1636 106.328 11.5076 106.804C12.0654 107.573 12.7452 108.545 13.4975 109.343C13.7217 109.579 13.8407 109.494 14.2199 110.087C14.3006 110.21 14.0401 110.192 14.698 110.695C14.8071 110.783 15.8826 111.64 16.2581 112.206C16.356 112.357 16.5703 112.781 16.8666 113.038C16.9071 113.072 16.8113 112.867 17.0484 113.087C17.8837 113.861 18.7623 114.67 19.6729 115.405C19.9163 115.601 19.6136 115.239 19.9748 115.531C20.9671 116.335 22.2212 117.321 23.2308 118.057C23.603 118.329 23.3026 118.203 23.3257 118.229C23.7003 118.638 24.0595 118.679 24.2129 118.771C25.1705 119.338 25.8516 119.852 26.747 120.352C26.9945 120.49 26.8602 120.321 26.9125 120.344C27.4522 120.576 27.005 120.481 27.319 120.678C28.2013 121.229 29.227 121.759 30.1784 122.207C30.527 122.37 30.1765 122.102 30.4886 122.248C32.3379 123.112 34.3114 123.911 36.1872 124.582C36.5414 124.709 36.295 124.701 36.3646 124.741C36.8462 125.017 37.6492 125.1 37.8276 125.136C38.6401 125.302 38.9369 125.445 39.6477 125.614C43.1181 126.457 47.501 127.056 50.8768 127.121C51.2135 127.13 51.5452 127.136 51.8727 127.139C55.8042 127.155 59.0254 126.855 62.8102 126.013C63.0704 125.954 62.7876 125.922 63.0111 125.869C65.8934 125.188 68.6903 124.321 71.4121 123.133C71.6355 123.035 71.2781 123.093 71.6346 122.933C72.3661 122.603 73.2837 122.182 74.0226 121.845C74.3823 121.68 73.9417 121.985 74.3032 121.817C75.1446 121.426 76.0235 120.959 76.8417 120.469C77.189 120.26 76.6156 120.489 77.0695 120.223C80.1558 118.398 82.9844 116.286 85.7307 113.913C85.9184 113.75 86.2048 113.736 86.5641 113.343C86.5577 113.278 86.5146 113.237 86.4895 113.186C90.2322 109.541 93.4481 105.413 95.9395 100.793C96.044 100.599 95.779 100.889 95.9798 100.512C97.1383 98.3234 98.0796 96.1162 99.0117 93.7588C99.1027 93.5245 99.2252 93.7041 99.4371 92.9908C99.4768 92.8659 99.7943 91.7905 99.8372 91.5037C99.8429 91.4646 99.709 91.6368 99.8084 91.2918C100.388 89.28 100.884 87.1528 101.258 85.0944C101.318 84.7615 101.347 85.1307 101.39 84.8933C101.696 83.2169 101.815 81.3631 101.971 79.7324C102.071 78.6475 102.199 79.0554 102.361 78.4763C102.385 78.3945 102.399 77.7119 102.482 77.6768C102.695 77.5871 102.922 77.9236 103.149 77.7889C103.2 77.7608 103.15 76.8288 103.266 77.3809C103.274 77.4196 103.307 78.0954 103.342 78.2622C103.367 78.3785 103.457 78.1715 103.487 78.4088C103.517 78.6463 103.438 78.9037 103.464 79.2957C103.489 79.689 103.597 79.516 103.565 80.3051ZM27.7043 32.9312C27.1342 33.1522 27.2033 33.4565 27.7394 33.0783C27.7652 33.0598 27.7336 32.9197 27.7043 32.9312ZM92.9571 47.869C92.6025 47.1478 92.1187 46.8332 92.37 47.3402C92.6178 47.8468 93.0638 48.0883 92.9571 47.869ZM97.2552 54.8564C96.9333 53.9792 96.4898 54.0453 97.0097 54.8887C97.0395 54.9379 97.2738 54.9077 97.2552 54.8564ZM102.263 81.1861C102.269 81.1782 102.308 80.6894 102.304 80.6773C102.228 80.4109 102.15 81.3866 102.263 81.1861ZM100.357 62.4006C100.33 62.1078 100.009 61.33 100.052 61.6957C100.088 61.9893 100.393 62.7654 100.357 62.4006ZM6.0702 55.3189C6.06179 55.3254 5.90722 55.6421 5.93328 55.6465C6.0164 55.6591 6.20633 55.2077 6.0702 55.3189ZM102.546 76.0734C102.506 74.0323 102.749 72.7471 102.838 74.9997C102.85 75.405 102.686 74.1319 102.679 74.6493C102.666 75.5909 102.902 76.2152 102.787 77.1885C102.767 77.3628 102.551 76.1885 102.546 76.0697C102.546 76.071 102.546 76.0722 102.546 76.0734ZM27.2245 32.7855C27.2117 32.7875 26.7837 33.0241 26.7757 33.0337C26.5924 33.246 27.4527 32.77 27.2245 32.7855ZM0.976709 75.1529C0.964249 75.1787 0.924348 76.3149 0.93453 76.353C1.07353 76.9466 1.15218 74.6564 0.976709 75.1529ZM59.0612 26.6983C59.6016 26.6774 60.2433 26.7686 60.643 26.9602C60.1197 26.863 59.5873 26.7784 59.0612 26.6983Z" fill="#737373"/>
<circle cx="75.9732" cy="63.9999" r="12.4737" stroke="#737373" stroke-width="2"/>
<circle cx="100.127" cy="50.7936" r="50.0436" stroke="#737373" stroke-width="1.5" stroke-dasharray="4.21 4.21"/>
</g>
</svg>
