<svg xmlns="http://www.w3.org/2000/svg" version="1.1" xmlns:xlink="http://www.w3.org/1999/xlink" width="84.65366666666667" height="77.75612061941648"><svg class="looka-1j8o68f" viewBox="0 0 84.65366666666667 77.75612061941648" xmlns="http://www.w3.org/2000/svg" style="max-height: 500px" width="84.65366666666667" height="77.75612061941648">
    <defs id="SvgjsDefs1018"></defs>
    <g fill="#ffffff" transform="matrix(0.6321264209630159,0,0,0.6321264209630159,-20.216978483935215,-32.57347128921458)" id="SvgjsG1017">
        <g fill="#10b982" xmlns="http://www.w3.org/2000/svg">
            <path d="M103.16 67.56a.4.4 0 0 1-.4-.4l-.02-11.68a4.14 3.88-.1 0 1 4.14-3.89l37.5-.06a4.14 3.88-.1 0 1 4.14 3.87l.02 11.68a.4.4 0 0 1-.4.4zm19.27-11.32a.62.62 0 0 0-.62-.62h-.5a.62.62 0 0 0-.62.62v6.32a.62.62 0 0 0 .62.62h.5a.62.62 0 0 0 .62-.62zm7.686.154a.75.75 0 0 0-.746-.753l-.16-.001a.75.75 0 0 0-.754.746l-.032 6.08a.75.75 0 0 0 .746.753l.16.001a.75.75 0 0 0 .754-.746zM125.62 70.2q9.93.01 22.16-.02a.77.76.8 0 1 .77.78q-.02 1.74-1.14 2.45a1.87 1.85-65.2 0 1-.69.26q-.31.05-21.1.03t-21.1-.06a1.87 1.85 65.3 0 1-.69-.27q-1.11-.71-1.13-2.45a.77.76-.7 0 1 .77-.78q12.22.06 22.15.06M76.42 87.725a6.01 6.01 0 0 1-6.02 6l-28.4-.05a6.01 6.01 0 0 1-6-6.02l.02-10.88a6.01 6.01 0 0 1 6.02-6l28.4.05a6.01 6.01 0 0 1 6 6.02zm-3.469-10.424a2.89 2.89 0 0 0-2.895-2.885l-27.62.048a2.89 2.89 0 0 0-2.885 2.895l.018 9.88a2.89 2.89 0 0 0 2.895 2.885l27.62-.048a2.89 2.89 0 0 0 2.885-2.895zM125.15 167.93q12.68.06 25.35.19 8.49.09 8.46-7.57-.08-21.51.28-46.59a4.6 4.34-55.9 0 0-.25-1.54q-1.77-5.09-4.61-9.26-9.57-13.99-11.52-17.05-2.62-4.11-2.2-9.31a.43.43 0 0 1 .43-.39h3.08a.42.42 0 0 1 .42.44q-.13 3.45 2.2 6.84c5.88 8.58 11.71 16.08 15.56 24.95q1.44 3.31 1.46 7.36.02 4.12-.11 41.53-.02 8.17-1.44 10.15c-3.19 4.42-6.53 5.09-12.55 5.1q-4.35 0-24.58-.09-20.22-.1-24.58-.15c-6.02-.06-9.35-.76-12.5-5.21q-1.4-2-1.34-10.17.23-37.41.29-41.53.05-4.05 1.53-7.34c3.93-8.83 9.83-16.28 15.79-24.8q2.37-3.37 2.27-6.82a.42.42 0 0 1 .42-.44l3.08.03a.43.43 0 0 1 .43.4q.37 5.2-2.29 9.28-1.98 3.05-11.68 16.94-2.88 4.15-4.7 9.22a4.6 4.34 56.4 0 0-.26 1.54q.12 25.08-.17 46.59-.1 7.66 8.39 7.65 12.67-.01 25.34.05"></path>
            <path d="M125.67 76.49q11.03.07 11.5.09a.62.62 0 0 1 .58.52q.74 5.1 3.92 9.49 7.78 10.75 13.28 18.99 1.63 2.43 2.21 3.95a5.22 4.91 31.9 0 1 .26.98q.14.88-.92 4.62-.43 1.49-.46 4.37-.08 6.9-.19 40.25c-.02 4.29-2.8 5.1-6.8 5.03q-1.78-.03-23.93-.17-22.15-.13-23.93-.13c-4 .03-6.77-.82-6.73-5.11q.3-33.35.3-40.25.01-2.88-.4-4.37-1.02-3.76-.87-4.63a5.22 4.91-31.2 0 1 .28-.98q.59-1.51 2.25-3.92 5.61-8.17 13.52-18.83 3.23-4.35 4.03-9.44a.62.62 0 0 1 .59-.51q.47-.02 11.51.05m3.33 36.68q-.03-6.94-2.67-13.65-.27-.7-.6-.7-.42.01-.69.71-2.58 6.72-2.55 13.67.02 6.95 2.66 13.65.28.7.61.7.41 0 .68-.71 2.59-6.72 2.56-13.67m-11.1 1.37q-3.93-6.25-10.08-10.82-.64-.48-.94-.29-.37.23-.22 1.02 1.45 7.52 5.38 13.78 3.93 6.25 10.08 10.82.64.48.94.29.37-.24.22-1.02-1.45-7.52-5.38-13.78m15.81.12q-3.95 6.12-5.46 13.52-.16.78.21 1.01.29.19.93-.27 6.12-4.43 10.06-10.56 3.95-6.12 5.47-13.52.16-.77-.21-1.01-.29-.19-.93.28-6.12 4.43-10.07 10.55m-30.63 12.02q-.2.41.38 1.07 3.89 4.49 9.05 7.02t11.09 2.86q.88.05 1.08-.36t-.38-1.07q-3.89-4.49-9.05-7.02t-11.08-2.86q-.89-.05-1.09.36m33.12 2.49c-3.43 1.67-7.35 4.32-9.25 7.54a.57.57 0 0 0 .49.85q5.63.04 11.48-2.82t9.29-7.32a.57.57 0 0 0-.38-.91c-3.7-.48-8.2.98-11.63 2.66m-7.6 16.52a3.04 3.04 0 0 0-3.04-3.04 3.04 3.04 0 0 0-3.04 3.04 3.04 3.04 0 0 0 3.04 3.04 3.04 3.04 0 0 0 3.04-3.04M70.327 86.475a1.02 1.02 0 0 1-1.018 1.022l-26.3.046a1.02 1.02 0 0 1-1.022-1.018l-.014-8.54a1.02 1.02 0 0 1 1.018-1.022l26.3-.046a1.02 1.02 0 0 1 1.022 1.018zM46.48 81.75a1.33 1.33 0 0 0-1.33-1.33 1.33 1.33 0 0 0-1.33 1.33 1.33 1.33 0 0 0 1.33 1.33 1.33 1.33 0 0 0 1.33-1.33M76 120.76q1.85-12.21-7.18-19.49a1.97 1.96 19.7 0 1-.72-1.52v-3.42a.52.52 0 0 1 .52-.52h3.03a.64.63 0 0 1 .64.63v1.75a1.41 1.38-67.2 0 0 .38.96c2.81 2.96 5.53 7.07 6.74 11.14q.51 1.69.5 7.07-.05 34.77-.04 43.64c.01 8.08-4.58 11.37-12.11 11.23q-5.04-.1-22.67.02-6.07.04-8.23-1.3-3.39-2.11-4.64-6.34a4.46 4.39 37 0 1-.17-1.14q-.09-28.66-.06-46.98c.01-6.73 3.45-12.35 7.77-17.19q.83-.93.4-2.87a.6.6 0 0 1 .59-.73h2.92a.64.63 0 0 1 .64.63v3.91a1.03 1 70.7 0 1-.36.78q-4.86 4.08-7.17 10.56c-1.33 3.73-.65 9.84-.8 14.46a.4.4 0 0 0 .59.37c11.93-6.45 25.87-9.55 38.99-5.38a.34.34 0 0 0 .44-.27m-28.42 33.73c-1.05 6.28-2.41 12.68-10.08 11.23a.4.4 0 0 0-.34.68c1.69 1.58 3.4 2.07 5.73 2.07q20.51-.02 26.33.11c5.08.11 7.02-3.19 6.97-8.18q-.11-12.16.03-34.97a.9.89 12.5 0 0-.52-.81c-4.88-2.24-10.28-2.52-16.02-2.13a.36.36 0 0 0-.25.6q5.31 6.24-.2 11.44-4.71 4.43-6.76 5.4c-8.51 4.01-16.34-5.54-9.93-12.63a.25.25 0 0 0-.31-.39l-5.7 3.29a.66.66 0 0 0-.33.57v14.19a.43.43 0 0 0 .58.4q5.27-2.05 8.93 1.97a.56.55 42.6 0 0 .85-.03q.28-.37.42-1.01.21-.99.6-1.52 4.08-5.52 10.55-2.96a2.9 2.82-13.1 0 1 .83.5q6.09 5.18 11.87 10.11c8.12 6.93-1.84 19.29-10.68 11.96q-3.81-3.16-11.89-10.14a.42.41-65.1 0 0-.68.25m9.885-29.408a5.17 5.17 0 0 0-7.272-.764l-5.346 4.33a5.17 5.17 0 0 0-.765 7.27l.453.56a5.17 5.17 0 0 0 7.272.764l5.346-4.33a5.17 5.17 0 0 0 .765-7.27zm12.573 36.796a5.29 5.29 0 0 0-.626-7.455l-11.411-9.643a5.29 5.29 0 0 0-7.455.626l-.284.336a5.29 5.29 0 0 0 .626 7.455l11.411 9.643a5.29 5.29 0 0 0 7.455-.626zm-32.958.752q3.47 1.84 5.99-1.29.75-.93 2.17-7.61c.91-4.31-3.7-7.19-7.61-5.84a2.39 2.38-9.7 0 0-1.6 2.25v10.76a1.96 1.95 13.9 0 0 1.05 1.73"></path>
        </g>
    </g>
    <g fill="#ffffff" transform="matrix(3.176871699254433,0,0,3.176871699254433,103.0000621088694,0.5300647222894312)" id="SvgjsG1016">
        <path d="M5.86 4.5 l-0.000019531 -0.26 l-5.86 0 l0 0.64 l3.38 0 l0 15.12 l0.7 0 l0 -15.12 l1.8 0 c-0.02666 -0.21334 -0.03332 -0.34 -0.01998 -0.38 z M6.38 4.24 l0 0.64 l1.1 0 l0 -0.64 l-1.1 0 z M10.64 14.16 l0 -9.36 l4.8 0 l0 -0.56 l-5.36 0 l0 9.92 l0.56 0 z M15.64 20 l0 -0.54 l-5 0 l0 -4.14 l0.8 0 l0 -0.54 l-1.36 0 l0 5.22 l5.56 0 z M25.220000000000002 4.58 l-0.000019531 11.56 c0 0.36 0.0066602 0.76 0.02 1.2 s0.02 0.66666 0.02 0.68 c-0.02666 -0.04 -0.12332 -0.25666 -0.28998 -0.65 s-0.33 -0.74334 -0.49 -1.05 l-0.28 -0.54 l-0.72 0 l2.2 4.22 l0.18 0 l0 -15.42 l-0.64 0 z M19.6 7.9399999999999995 l0.27998 0.54 l0.72 0 l-2.22 -4.24 l-0.14 0 l0 15.46 l0.62 0 l0 -11.6 c0 -0.33334 -0.0066602 -0.72334 -0.02 -1.17 s-0.02 -0.67666 -0.02 -0.69 c0.01334 0.04 0.10668 0.26 0.28002 0.66 s0.34 0.74666 0.5 1.04 z M33.8 6.140000000000001 c0 0.08 0.23666 0.84334 0.71 2.29 s0.99 3.03 1.55 4.75 s1.3133 3.9934 2.26 6.82 l0.86 0 l-5.3 -15.76 l-0.16 0 l-5.26 15.76 l0.82 0 z M33.44 15.52 l-0.72 0 l1.2 4.48 l0.72 0 z M50.86 20 l0 -15.76 l-0.66 0 l-3.88 7.22 l-2.58 -4.8 l-0.58 0.32 l3.16 5.86 l3.9 -7.28 l0 14.44 l0.64 0 z M42.42 20 l0 -14.4 l0.16 0.3 l0.58 -0.3 l-0.74 -1.36 l-0.64 0 l0 15.76 l0.64 0 z M58.8 6.140000000000001 c0 0.08 0.23666 0.84334 0.71 2.29 s0.99 3.03 1.55 4.75 s1.3133 3.9934 2.26 6.82 l0.86 0 l-5.3 -15.76 l-0.16 0 l-5.26 15.76 l0.82 0 z M58.44 15.52 l-0.72 0 l1.2 4.48 l0.72 0 z M71.18 15.219999999999999 c0.85334 -0.48 1.5067 -1.1567 1.96 -2.03 s0.68 -1.8633 0.68 -2.97 l0 -0.28 c0 -1.64 -0.49 -3 -1.47 -4.08 s-2.3766 -1.62 -4.19 -1.62 l-1.38 0 l0 6.34 c0.22666 0.01334 0.45332 0.02 0.67998 0.02 l0 -5.72 l0.66 0 c1.64 0 2.88 0.47666 3.72 1.43 s1.26 2.1766 1.26 3.67 l0 0.22 c0 1.48 -0.42 2.6934 -1.26 3.64 s-2.08 1.42 -3.72 1.42 l-0.66 0 l0 0 l-0.68 0 l0 0.64 c0.4 0.01334 0.66666 0.02 0.8 0.02 l0.58 0 c0.92 0 1.7267 -0.14 2.42 -0.42 l2.48 4.5 l0.8 0 z M82.32000000000001 4.5 l-0.000019531 -0.26 l-5.86 0 l0 0.64 l3.38 0 l0 15.12 l0.7 0 l0 -15.12 l1.8 0 c-0.02666 -0.21334 -0.03332 -0.34 -0.01998 -0.38 z M82.84 4.24 l0 0.64 l1.1 0 l0 -0.64 l-1.1 0 z"></path>
    </g>
</svg><style>@media (prefers-color-scheme: light) { :root { filter: none; } }
@media (prefers-color-scheme: dark) { :root { filter: none; } }
</style></svg>