<svg id="Layer_1" data-name="Layer 1" xmlns="http://www.w3.org/2000/svg" viewBox="0 0 432.01 183.79"><defs><style>.cls-1{fill:#1ac688;}.cls-2{fill:#10b982;}</style></defs><path class="cls-1" d="M173.68,165s-91,42.17-132.86-60.21C29.15,76.29,34.76,67.31,0,0,0,0,107.71,10,154.26,81.65a126.28,126.28,0,0,1,16.67,38.07c.64,2.58,1.77,7.89,1.77,7.89s-1,0-2.87,0c-.33,0-.64,0-1,0-1.32,0-2.95-.11-4.85-.25-1-.06-2-.14-2.89-.23A128.57,128.57,0,0,1,131,120.54c-19.08-6.79-39.43-20.07-48.6-45.91C84.93,82.35,92.93,106,96,112.43,106.76,135.49,126.77,158.16,173.68,165Z"/><path class="cls-2" d="M402.88,8.28C354.45,77.19,362,90.18,343.65,120.51c-65.93,108.89-167.81,44.22-167.81,44.22,47.42-2,126.29-80.81,103.64-61.95-44,21.21-81.87,25.61-108.39,24.83l-1.26,0c-.33,0-.64,0-1,0-1.66-.06-3.28-.14-4.85-.25-1-.06-2-.14-2.89-.23A128.57,128.57,0,0,1,131,120.54c1.54-3.45,7.37-16.56,11.36-22.87a126.07,126.07,0,0,1,11.95-16C228.14-3.62,402.88,8.28,402.88,8.28Z"/><path class="cls-2" d="M389.88,132.68h16.5v2.66h-6.82v18.47h-2.89V135.34h-6.79Z"/><path class="cls-2" d="M409.7,132.68h3.44l7.73,14.85,7.67-14.85H432v21.13h-2.72l0-16.87-7.51,14.64H420l-7.57-14.64v16.87H409.7Z"/></svg>