<svg id="Layer_1" data-name="Layer 1" xmlns="http://www.w3.org/2000/svg" viewBox="0 0 900.93 373.12"><defs><style>.cls-1{fill:#1ac688;}.cls-2{fill:#10b982;}</style></defs><path class="cls-1" d="M396.3,83.83s-46.23,21.43-67.5-30.59c-5.93-14.48-3.08-19-20.74-53.24,0,0,54.72,5.06,78.37,41.48a64.19,64.19,0,0,1,8.47,19.35c.33,1.31.9,4,.9,4s-.53,0-1.46,0a3.77,3.77,0,0,1-.48,0c-.67,0-1.5,0-2.47-.13-.5,0-1-.07-1.47-.11a65.43,65.43,0,0,1-15.33-3.32c-9.7-3.45-20-10.19-24.69-23.32,1.31,3.92,5.37,15.91,6.91,19.2C362.3,68.84,372.46,80.35,396.3,83.83Z"/><path class="cls-2" d="M512.74,4.21c-24.6,35-20.75,41.6-30.09,57-33.5,55.33-85.26,22.47-85.26,22.47,24.09-1,64.17-41,52.66-31.47C427.69,63,408.46,65.23,395,64.83h-.64a3.77,3.77,0,0,1-.48,0c-.84,0-1.67-.07-2.47-.13-.5,0-1-.07-1.47-.11a65.43,65.43,0,0,1-15.33-3.32,120.31,120.31,0,0,1,5.77-11.62,65,65,0,0,1,6.07-8.14C424-1.84,512.74,4.21,512.74,4.21Z"/><path class="cls-2" d="M605.64,173.65c-4.58,19.74-13.08,79.46-13.08,79.46H566.3l20.94-83.78c1.38-5.2,4.81-21.18-10.24-21.18-51.59,0-56.26,93.16-60.58,105H488.2l28.26-108.06c7.83-29.29-19.78-39.87-48.21-.67-34.42,47.46-41.72,108.73-41.72,108.73H398.86l32.38-128.52c2.46-12.5-19.16-23.24-34.73,5.67-10.33,19.2-13.14,89.53-33.61,141.12C341,326.66,286.21,367.42,227,372.56c-17.59,1.53-35.69.07-52.06-6.58s-30.85-18.85-38.1-34.93c-2-4.5-3.25-10.4.26-13.88,2.62-2.58,6.74-2.62,10.42-2.44,34.69,1.65,69.25,8,103.93,6.06s70.93-13.71,92.3-41.1c14.91-19.08,21-43.53,25.07-67.39,8.55-49.74,15.27-104.75,60.51-104.75,5.79,0,10.35,1,13.72,3a16.55,16.55,0,0,1,7,7.86,30.53,30.53,0,0,1,2.18,11,56.54,56.54,0,0,1-1,11.8L448.57,154c9.9-17.19,31.94-46.71,61.62-46.71,36.75,0,27.94,46,27.94,46-.34,2-.81,4.06-1.32,6.17l-.46,1.83s0,0,0,0c1.6-2.28,3.24-4.43,4.91-6.47,6.64-8.21,13.61-14.38,20.81-18.57s14.37-6.25,21.5-6.25c7.75,0,13.58,1.87,17.53,5.59s6.27,8.84,6.94,15.35S607.67,164.91,605.64,173.65Z"/><path class="cls-2" d="M36.43,253.09H11.9L39.23,123H0l4.66-21.21H108L103.5,123H64.06Z"/><path class="cls-2" d="M105.81,255.16q-20.4,0-31.83-11.49T62.55,211.59a91,91,0,0,1,8-38.14q8-17.64,21.73-27.27A52.15,52.15,0,0,1,123,136.55q16.67,0,25.93,7.51t9.26,21.26q0,18.84-17.23,29.45T91.84,205.38H87.39l-.21,3.21v3q0,11.49,5.85,18t17.44,6.52a57.12,57.12,0,0,0,14.8-2,105.11,105.11,0,0,0,17.38-6.73v19.36a96.69,96.69,0,0,1-18.26,6.47A83.56,83.56,0,0,1,105.81,255.16Zm15.73-100q-9.93,0-18.68,8.9t-12.58,23.5h3q19.47,0,30.43-5.54t11-15.68a10.45,10.45,0,0,0-3.31-8.23Q128.06,155.18,121.54,155.18Z"/><path class="cls-2" d="M215.54,253.09l14.69-69.55A78.6,78.6,0,0,0,232.1,170q0-13.56-13.36-13.56-7.44,0-14.69,5.9t-13,17a96.13,96.13,0,0,0-8.7,25.2l-10.14,48.54H147.75l24.42-114.47h19L189,159.84H190q8.59-12.21,17.7-17.75a37.37,37.37,0,0,1,19.77-5.54q13.86,0,21.47,7.87t7.61,22.35a97.56,97.56,0,0,1-2.38,18.74L240,253.09Z"/><path class="cls-2" d="M288,255.16q-14.6,0-23.08-10.5t-8.49-29.55A105.51,105.51,0,0,1,263.63,176q7.2-18.21,19.82-28.82t27.74-10.61A29.4,29.4,0,0,1,339.75,155h1l6.42-16.35h18.63L341.41,253.09H322.57l2.18-18.22h-.62Q307.77,255.17,288,255.16Zm8.9-19.66q8.47,0,16.66-8T327,206a79.78,79.78,0,0,0,5.28-29.39q0-9.12-4.86-14.65a16.16,16.16,0,0,0-12.73-5.54q-8.81,0-16.56,8t-12.42,21.69a87.59,87.59,0,0,0-4.66,28.41q0,10.55,4.19,15.78T296.91,235.5Z"/><path class="cls-2" d="M699.57,139.58,693.2,155.8h-1a29.2,29.2,0,0,0-28.33-18.27,40,40,0,0,0-17.31,3.89,47.91,47.91,0,0,0-10.2,6.63q-12.52,10.51-19.65,28.6-.88,2.23-1.66,4.51a.09.09,0,0,0,0,.05,97.33,97.33,0,0,0-4.22,17.5,109,109,0,0,0-1.24,16.72q0,18.9,8.41,29.31a27.28,27.28,0,0,0,9.93,7.81h0a30.8,30.8,0,0,0,12.94,2.61q19.6,0,35.82-20.11h.62l-2.16,18.06h18.69L718,139.58Zm-20,66.83q-5.24,13.34-13.34,21.3a33.64,33.64,0,0,1-6,4.77,19.91,19.91,0,0,1-10.52,3.18c-4.92,0-8.77-1.72-11.55-5.19a4.25,4.25,0,0,1-.31-.43c-2.57-3.43-3.84-8.52-3.84-15.22a87,87,0,0,1,4.32-27.27l.3-.9A64.6,64.6,0,0,1,646,171.3a43.84,43.84,0,0,1,5-6.16q7.7-7.89,16.42-7.9A16,16,0,0,1,680,162.73c3.22,3.67,4.83,8.5,4.83,14.53A79.38,79.38,0,0,1,679.55,206.41Z"/><path class="cls-2" d="M784.24,137.53a33.26,33.26,0,0,0-18.07,5.39q-8.52,5.39-17,17.7h-.93l2.17-21H731.48L707.25,253.11h24.23l10.88-51.32q4-18.79,14.17-30.39t23.09-11.59a41.59,41.59,0,0,1,10.46,1.43l.79-3.38,3.61-15.43.85-3.66A43.92,43.92,0,0,0,784.24,137.53Z"/><path class="cls-2" d="M824.94,157.86h28.42l4-18.28H828.73l5.35-25.24h-15l-13.24,23.8-17.45,78.22a64.16,64.16,0,0,0-1.64,13.44q0,25.37,28.12,25.36a57.38,57.38,0,0,0,12.32-1.34,43.44,43.44,0,0,0,9.75-3.08V232.48a44.5,44.5,0,0,1-15.49,3.18c-3.5,0-6.09-.87-7.8-2.62a9.59,9.59,0,0,1-2.57-7,42.5,42.5,0,0,1,1.33-9.44Z"/><path class="cls-2" d="M864.81,113.76H879V116h-5.84v15.83h-2.49V116h-5.82Z"/><path class="cls-2" d="M881.81,113.76h3l6.62,12.73L898,113.76h3v18.11H898.6l0-14.46L892.13,130h-1.52l-6.5-12.55v14.46h-2.3Z"/></svg>